<mxfile host="Electron" agent="Mozilla/5.0 (Macintosh; Intel Mac OS X 10_15_7) AppleWebKit/537.36 (KHTML, like Gecko) draw.io/26.0.7 Chrome/128.0.6613.186 Electron/32.2.5 Safari/537.36" version="26.0.7">
  <diagram name="第 1 页" id="opZzEMh-RA-9dzaeZ1Qd">
    <mxGraphModel dx="783" dy="605" grid="1" gridSize="10" guides="1" tooltips="1" connect="1" arrows="1" fold="1" page="1" pageScale="1" pageWidth="827" pageHeight="1169" math="0" shadow="0">
      <root>
        <mxCell id="0" />
        <mxCell id="1" parent="0" />
        <mxCell id="DXrqJIvel3NadIoqMeFl-6" value="" style="rounded=0;whiteSpace=wrap;html=1;" vertex="1" parent="1">
          <mxGeometry x="340" y="300" width="130" height="130" as="geometry" />
        </mxCell>
        <mxCell id="DXrqJIvel3NadIoqMeFl-2" value="segment" style="rounded=1;whiteSpace=wrap;html=1;fillColor=#e3c800;fontColor=#000000;strokeColor=#B09500;" vertex="1" parent="1">
          <mxGeometry x="350" y="310" width="110" height="30" as="geometry" />
        </mxCell>
        <mxCell id="DXrqJIvel3NadIoqMeFl-3" value="segment" style="rounded=1;whiteSpace=wrap;html=1;fillColor=#e3c800;fontColor=#000000;strokeColor=#B09500;" vertex="1" parent="1">
          <mxGeometry x="350" y="350" width="110" height="30" as="geometry" />
        </mxCell>
        <mxCell id="DXrqJIvel3NadIoqMeFl-4" value="segment" style="rounded=1;whiteSpace=wrap;html=1;fillColor=#e3c800;fontColor=#000000;strokeColor=#B09500;" vertex="1" parent="1">
          <mxGeometry x="350" y="390" width="110" height="30" as="geometry" />
        </mxCell>
        <mxCell id="DXrqJIvel3NadIoqMeFl-7" value="Lucene" style="text;html=1;align=center;verticalAlign=middle;whiteSpace=wrap;rounded=0;" vertex="1" parent="1">
          <mxGeometry x="375" y="270" width="60" height="30" as="geometry" />
        </mxCell>
      </root>
    </mxGraphModel>
  </diagram>
</mxfile>
